# xmcd CD database file
#
# Track frame offsets:
#	150
#	27805
#	53264
#	87489
#	105526
#	126578
#	164223
#	194860
#	224069
#	242520
#	273800
#
# Disc length: 3790 seconds
#
# Revision: 0
# Processed by: cddbd v1.5.2PL0 Copyright (c) Steve Scherf et al.
# Submitted via: CDex 1.70beta2
#
DISCID=a30ecc0b
DTITLE=The Robert Cray Band - Tried, True and New Blues
DYEAR=2008
DGENRE=Blues
TTITLE0=After Hours - Dianne Reeves
TTITLE1=Never Said - Dianne Reeves
TTITLE2=Twenty - The Robert Cray Band
TTITLE3=Bad Influence - The Robert Cray Band
TTITLE4=Phone Booth - The Robert Cray Band
TTITLE5=The One In The Middle - The Robert Cray Band
TTITLE6=Twenty - Robert Cray
TTITLE7=12 Year Old Boy - The Robert Cray Band
TTITLE8=12 Year Old Boy - Keb' Mo' and Robert Cray
TTITLE9=Smoking Gun - Robert Cray
TTITLE10=Could This Be Magic? - The Dubs
EXTD=YEAR: 2008
EXTT0=
EXTT1=
EXTT2=
EXTT3=
EXTT4=
EXTT5=
EXTT6=
EXTT7=
EXTT8=
EXTT9=
EXTT10=
PLAYORDER=
